<svg xmlns="http://www.w3.org/2000/svg" height="40px" viewBox="0 -960 960 960" width="40px" fill="#434343"><path d="M791.25-102.96 528.33-365.49q-29.43 23.45-68.82 36.84-39.38 13.39-84.61 13.39-112.67 0-191.04-78.37-78.37-78.37-78.37-189.7 0-111.34 78.37-189.71t190.37-78.37q111.34 0 189.37 78.37 78.04 78.37 78.04 189.71 0 44.46-13.06 83.28t-37.84 71.4l263.77 262.62-63.26 63.07ZM374.23-403.41q75.05 0 127.15-52.44 52.11-52.44 52.11-127.48 0-75.05-52.11-127.49-52.1-52.44-127.15-52.44-75.33 0-127.96 52.44-52.63 52.44-52.63 127.49 0 75.04 52.63 127.48t127.96 52.44Z"/></svg>