<svg xmlns="http://www.w3.org/2000/svg" viewBox="0 0 512 512"><defs><linearGradient id="a" x1="99.5" x2="232.6" y1="30.7" y2="261.4" gradientUnits="userSpaceOnUse"><stop offset="0" stop-color="#f3f7fe"/><stop offset=".5" stop-color="#f3f7fe"/><stop offset="1" stop-color="#deeafb"/></linearGradient><linearGradient id="b" x1="11.4" x2="32.8" y1="5.9" y2="43.1" gradientUnits="userSpaceOnUse"><stop offset="0" stop-color="#86c3db"/><stop offset=".5" stop-color="#86c3db"/><stop offset="1" stop-color="#5eafcf"/></linearGradient></defs><path fill="url(#a)" stroke="#e6effc" stroke-miterlimit="10" stroke-width="6" d="M372 252l-2.5.1A83.9 83.9 0 00216.6 188a56 56 0 00-84.6 48 56.6 56.6 0 00.8 9 60 60 0 0011.2 119l4-.2v.2h224a56 56 0 000-112z"/><g transform="translate(177.9 337.5)" fill="url(#b)" stroke="#86c3db" stroke-miterlimit="10"><path d="m41.7 31-5.8-3.3a13.7 13.7 0 000-6.5l5.8-3.2a4 4 0 00-4-7l-5.8 3.3a13.6 13.6 0 00-5.6-3.3V4.5a4 4 0 00-8.1 0v6.6a14.3 14.3 0 00-5.7 3.2L6.6 11a4 4 0 00-4 7l5.8 3.3a13.7 13.7 0 000 6.5L2.5 31a4 4 0 004 7l5.8-3.3a13.6 13.6 0 005.6 3.2v6.6a4 4 0 008.2 0v-6.6a14.2 14.2 0 005.6-3.2l6 3.3a4 4 0 004-7.5zm-22.7-1.3a6 6 0 115.2-10.5 6 6 0 01-5.2 10.5z"/><path d="m97.7 121-5.8-3.3a13.7 13.7 0 000-6.5l5.8-3.2a4 4 0 00-4.1-7l-5.8 3.3a13.6 13.6 0 00-5.6-3.3v-6.5a4 4 0 00-8.1 0v6.6a14.3 14.3 0 00-5.7 3.2l-5.8-3.3a4 4 0 00-4.1 7l5.8 3.3a13.7 13.7 0 000 6.5l-5.8 3.2a4 4 0 004.1 7l5.8-3.3a13.6 13.6 0 005.7 3.2v6.6a4 4 0 008 0V128a14.2 14.2 0 005.7-3.2l5.8 3.3a4 4 0 004.1-7.5zM75 119.7a6 6 0 115.2-10.5 6 6 0 01-5.2 10.5z"/><path d="m153.7 71-5.8-3.3a13.7 13.7 0 000-6.5l5.8-3.2a4 4 0 00-4.1-7l-5.8 3.3a13.6 13.6 0 00-5.6-3.3v-6.5a4 4 0 00-8.1 0v6.6a14.3 14.3 0 00-5.7 3.2l-5.8-3.3a4 4 0 00-4.1 7l5.8 3.3a13.7 13.7 0 000 6.5l-5.8 3.2a4 4 0 004.1 7l5.8-3.3a13.6 13.6 0 005.7 3.2v6.6a4 4 0 008 0v-6.6a14.2 14.2 0 005.7-3.2l5.8 3.3a4 4 0 004.1-7.5zM131 69.7a6 6 0 115.2-10.5 6 6 0 01-5.2 10.5z"/></g></svg>